<?xml version="1.0" encoding="UTF-8" standalone="no"?>
<svg width="771px" height="133px" viewBox="0 0 771 133" version="1.1" xmlns="http://www.w3.org/2000/svg" xmlns:xlink="http://www.w3.org/1999/xlink">
    <!-- Generator: Sketch 3.6.1 (26313) - http://www.bohemiancoding.com/sketch -->
    <title>Group 7</title>
    <desc>Created with Sketch.</desc>
    <defs></defs>
    <g id="Page-1" stroke="none" stroke-width="1" fill="none" fill-rule="evenodd">
        <g id="Group-7">
            <path d="M51.416,33.448 L65.384,33.448 L80.36,87.016 L80.648,87.016 L90.44,42.52 L83.096,42.088 L83.096,30.568 L112.04,30.568 L112.04,41.656 L107.288,41.944 C105.36799,42.136001 104.072003,43.2879894 103.4,45.4 L89.72,103 L68.984,103 L57.176,60.088 L56.744,60.088 L44.504,103 L23.336,103 L8.792,45.544 C8.3119976,44.1999933 7.80800264,43.2880024 7.28,42.808 C6.75199736,42.3279976 5.86400624,42.0400005 4.616,41.944 L0.44,41.656 L0.44,30.568 L33.416,30.568 L33.416,42.088 L25.352,42.52 L35.288,86.728 L35.576,86.728 L51.416,33.448 Z M158.376,28.408 C165.576036,28.408 171.287979,30.1599825 175.512,33.664 C179.736021,37.1680175 181.848,42.0879683 181.848,48.424 C181.848,52.6480211 180.936009,56.3679839 179.112,59.584 C177.287991,62.8000161 175.032013,65.3199909 172.344,67.144 C169.655987,68.9680091 166.392019,70.4559942 162.552,71.608 C156.119968,73.5280096 148.87204,74.488 140.808,74.488 C141.096001,79.5760254 142.679986,83.6799844 145.56,86.8 C148.440014,89.9200156 152.85597,91.48 158.808,91.48 C164.76003,91.48 170.71197,89.3680211 176.664,85.144 L182.136,96.808 C180.21599,98.5360086 176.976023,100.311991 172.416,102.136 C167.855977,103.960009 162.648029,104.872 156.792,104.872 C145.079941,104.872 136.488027,101.632032 131.016,95.152 C125.543973,88.6719676 122.808,79.7680566 122.808,68.44 C122.808,57.1119434 125.927969,47.6080384 132.168,39.928 C138.408031,32.2479616 147.143944,28.408 158.376,28.408 L158.376,28.408 Z M161.544,57.136 C164.520015,54.9759892 166.008,52.4080149 166.008,49.432 C166.008,43.5759707 163.128029,40.648 157.368,40.648 C151.991973,40.648 147.864014,42.7839786 144.984,47.056 C142.103986,51.3280214 140.520001,56.4399702 140.232,62.392 C144.456021,62.2959995 148.319982,61.9360031 151.824,61.312 C155.328018,60.6879969 158.567985,59.2960108 161.544,57.136 L161.544,57.136 Z M202.264,98.68 L202.264,16.024 C202.264,13.815989 201.064012,12.6640005 198.664,12.568 L193.624,12.28 L193.624,0.328 L218.968,0.328 L218.968,34.456 C223.288022,30.4239798 229.095964,28.408 236.392,28.408 C245.416045,28.408 252.567974,31.4559695 257.848,37.552 C263.128026,43.6480305 265.768,52.2159448 265.768,63.256 C265.768,91.0001387 254.152116,104.872 230.92,104.872 C225.927975,104.872 220.672028,104.272006 215.152,103.072 C209.631972,101.871994 205.336015,100.408009 202.264,98.68 L202.264,98.68 Z M218.968,52.024 L218.968,89.32 C222.616018,91.2400096 226.839976,92.2 231.64,92.2 C242.584055,92.2 248.056,83.3200888 248.056,65.56 C248.056,49.3359189 242.680054,41.224 231.928,41.224 C228.471983,41.224 225.448013,42.2319899 222.856,44.248 C220.263987,46.2640101 218.968,48.8559842 218.968,52.024 L218.968,52.024 Z" id="web" fill="#2CD785"></path>
            <path d="M277.888,42.232 L277.888,30.568 L302.224,30.568 L302.224,39.928 C307.600027,32.2479616 314.967953,28.408 324.328,28.408 C333.688047,28.408 339.999984,32.2479616 343.264,39.928 C348.640027,32.2479616 355.935954,28.408 365.152,28.408 C372.064035,28.408 377.391981,30.4959791 381.136,34.672 C384.880019,38.8480209 386.752,45.1119582 386.752,53.464 L386.752,91.048 L394.96,91.48 L394.96,103 L360.688,103 L360.688,92.056 L365.44,91.624 C366.880007,91.431999 367.911997,91.0240031 368.536,90.4 C369.160003,89.7759969 369.52,88.6480082 369.616,87.016 L369.616,57.208 C369.616,51.9279736 369.016006,48.0160127 367.816,45.472 C366.615994,42.9279873 363.808022,41.656 359.392,41.656 C354.975978,41.656 351.592012,42.9999866 349.24,45.688 C346.887988,48.3760134 345.712,51.9759774 345.712,56.488 L345.712,91.048 L353.632,91.48 L353.632,103 L319.648,103 L319.648,92.056 L324.4,91.624 C325.840007,91.431999 326.895997,91.0240031 327.568,90.4 C328.240003,89.7759969 328.576,88.6000086 328.576,86.872 L328.576,57.208 C328.576,51.9279736 327.976006,48.0160127 326.776,45.472 C325.575994,42.9279873 322.744022,41.656 318.28,41.656 C313.815978,41.656 310.432012,43.0479861 308.128,45.832 C305.823988,48.6160139 304.672,52.0719794 304.672,56.2 L304.672,91.048 L312.448,91.48 L312.448,103 L278.464,103 L278.464,92.056 L283.216,91.624 C284.656007,91.431999 285.711997,91.0240031 286.384,90.4 C287.056003,89.7759969 287.392,88.6000086 287.392,86.872 L287.536,86.872 L287.536,47.128 C287.536,45.4959918 287.272003,44.3680031 286.744,43.744 C286.215997,43.1199969 285.280007,42.7600005 283.936,42.664 L277.888,42.232 Z M443.6,28.408 C450.800036,28.408 456.511979,30.1599825 460.736,33.664 C464.960021,37.1680175 467.072,42.0879683 467.072,48.424 C467.072,52.6480211 466.160009,56.3679839 464.336,59.584 C462.511991,62.8000161 460.256013,65.3199909 457.568,67.144 C454.879987,68.9680091 451.616019,70.4559942 447.776,71.608 C441.343968,73.5280096 434.09604,74.488 426.032,74.488 C426.320001,79.5760254 427.903986,83.6799844 430.784,86.8 C433.664014,89.9200156 438.07997,91.48 444.032,91.48 C449.98403,91.48 455.93597,89.3680211 461.888,85.144 L467.36,96.808 C465.43999,98.5360086 462.200023,100.311991 457.64,102.136 C453.079977,103.960009 447.872029,104.872 442.016,104.872 C430.303941,104.872 421.712027,101.632032 416.24,95.152 C410.767973,88.6719676 408.032,79.7680566 408.032,68.44 C408.032,57.1119434 411.151969,47.6080384 417.392,39.928 C423.632031,32.2479616 432.367944,28.408 443.6,28.408 L443.6,28.408 Z M446.768,57.136 C449.744015,54.9759892 451.232,52.4080149 451.232,49.432 C451.232,43.5759707 448.352029,40.648 442.592,40.648 C437.215973,40.648 433.088014,42.7839786 430.208,47.056 C427.327986,51.3280214 425.744001,56.4399702 425.456,62.392 C429.680021,62.2959995 433.543982,61.9360031 437.048,61.312 C440.552018,60.6879969 443.791985,59.2960108 446.768,57.136 L446.768,57.136 Z M517.296,28.408 C524.496036,28.408 530.207979,30.1599825 534.432,33.664 C538.656021,37.1680175 540.768,42.0879683 540.768,48.424 C540.768,52.6480211 539.856009,56.3679839 538.032,59.584 C536.207991,62.8000161 533.952013,65.3199909 531.264,67.144 C528.575987,68.9680091 525.312019,70.4559942 521.472,71.608 C515.039968,73.5280096 507.79204,74.488 499.728,74.488 C500.016001,79.5760254 501.599986,83.6799844 504.48,86.8 C507.360014,89.9200156 511.77597,91.48 517.728,91.48 C523.68003,91.48 529.63197,89.3680211 535.584,85.144 L541.056,96.808 C539.13599,98.5360086 535.896023,100.311991 531.336,102.136 C526.775977,103.960009 521.568029,104.872 515.712,104.872 C503.999941,104.872 495.408027,101.632032 489.936,95.152 C484.463973,88.6719676 481.728,79.7680566 481.728,68.44 C481.728,57.1119434 484.847969,47.6080384 491.088,39.928 C497.328031,32.2479616 506.063944,28.408 517.296,28.408 L517.296,28.408 Z M520.464,57.136 C523.440015,54.9759892 524.928,52.4080149 524.928,49.432 C524.928,43.5759707 522.048029,40.648 516.288,40.648 C510.911973,40.648 506.784014,42.7839786 503.904,47.056 C501.023986,51.3280214 499.440001,56.4399702 499.152,62.392 C503.376021,62.2959995 507.239982,61.9360031 510.744,61.312 C514.248018,60.6879969 517.487985,59.2960108 520.464,57.136 L520.464,57.136 Z M570.832,15.304 L580.192,15.304 L580.192,30.568 L599.344,30.568 L597.904,42.664 L580.192,42.664 L580.192,80.536 C580.192,84.7600211 580.959992,87.7119916 582.496,89.392 C584.032008,91.0720084 586.407984,91.912 589.624,91.912 C592.840016,91.912 596.079984,90.9040101 599.344,88.888 L603.664,99.976 C598.863976,103.336017 592.768037,105.016 585.376,105.016 C581.055978,105.016 577.408015,104.464006 574.432,103.36 C571.455985,102.255994 569.248007,101.032007 567.808,99.688 C566.367993,98.3439933 565.264004,96.376013 564.496,93.784 C563.727996,91.191987 563.296,89.1520074 563.2,87.664 C563.104,86.1759926 563.056,83.9920144 563.056,81.112 L563.056,42.664 L552.832,42.664 L554.272,32.152 C558.784023,31.7679981 562.191988,30.1600142 564.496,27.328 C566.800012,24.4959858 568.91199,20.4880259 570.832,15.304 L570.832,15.304 Z M686.576,91.624 L686.576,103 L663.248,103 L663.248,93.64 C657.967974,101.128037 650.192051,104.872 639.92,104.872 C625.039926,104.872 617.6,96.568083 617.6,79.96 L617.6,46.696 C617.6,44.103987 616.400012,42.7600005 614,42.664 L609.392,42.376 L609.392,30.568 L634.736,30.568 L634.736,76.216 C634.736,81.3040254 635.455993,85.143987 636.896,87.736 C638.336007,90.328013 641.311977,91.624 645.824,91.624 C650.336023,91.624 653.959986,90.2320139 656.696,87.448 C659.432014,84.6639861 660.8,81.3040197 660.8,77.368 L660.8,46.984 C660.8,45.4479923 660.536003,44.3680031 660.008,43.744 C659.479997,43.1199969 658.544007,42.7600005 657.2,42.664 L652.592,42.376 L652.592,30.568 L677.936,30.568 L677.936,87.016 C677.936,88.5520077 678.175998,89.5839974 678.656,90.112 C679.136002,90.6400026 680.095993,90.999999 681.536,91.192 L686.576,91.624 Z M707.424,116.68 L707.424,46.984 C707.424,45.3519918 707.160003,44.2240031 706.632,43.6 C706.103997,42.9759969 705.168007,42.664 703.824,42.664 L697.776,42.232 L697.776,30.568 L722.112,30.568 L722.112,39.928 C723.648008,37.0479856 726.43198,34.408012 730.464,32.008 C734.49602,29.607988 739.295972,28.408 744.864,28.408 C762.240087,28.408 770.928,40.5998781 770.928,64.984 C770.928,77.9440648 768.096028,87.8799654 762.432,94.792 C756.767972,101.704035 749.088048,105.16 739.392,105.16 C733.631971,105.16 728.496023,103.768014 723.984,100.984 L723.984,120.856 L735.648,121.432 L735.648,132.808 L698.496,132.808 L698.496,121.864 L703.248,121.432 C704.688007,121.239999 705.743997,120.832003 706.416,120.208 C707.088003,119.583997 707.424,118.408009 707.424,116.68 L707.424,116.68 Z M753.072,66.424 C753.072,50.3919198 748.224048,42.376 738.528,42.376 C734.49598,42.376 731.064014,43.5999878 728.232,46.048 C725.399986,48.4960122 723.984,51.3999832 723.984,54.76 L723.984,87.88 C727.632018,90.280012 732.071974,91.48 737.304,91.48 C742.536026,91.48 746.471987,89.080024 749.112,84.28 C751.752013,79.479976 753.072,73.5280355 753.072,66.424 L753.072,66.424 Z" id="Type-something" fill="#181818"></path>
        </g>
    </g>
</svg>